<svg id="logo" xmlns="http://www.w3.org/2000/svg" viewBox="0 0 400.2 367.6" fill="#fff">
    <path class="cls-1" d="M399.3,181h-103.4c0-11.5-9.3-20.9-20.9-20.9s-20.9,9.3-20.9,20.9h-109c0-11.5-9.3-20.9-20.8-20.9s-20.8,9.3-20.8,20.9H0c0-24.2,10.9-48.3,28.2-70.3-10-14.5-16.8-32.5-16.8-48.6C11.4,28.6,45.1,0,72.5,0c21.2,0,45.3,14.8,55.2,37,24.8-10.6,49.9-16.7,72-16.7s47.2,6.2,72,16.7C281.6,14.8,305.7,0,326.9,0c27.4,0,61.1,28.6,61.1,62.1,0,16.1-6.8,34.1-16.8,48.5,17.2,22,28.1,46.2,28.1,70.4h0ZM71,241.9c11-.6,17.4-7.9,17.4-16,0-11.3-11.8-19-30.3-19H2.7v72.4H62.2c18.5,0,30.3-8,30.3-19.8,0-10.7-9.9-16.8-21.5-17.6h0Zm-39.7-17.4h21.9c3.5,0,6.5,1.7,6.5,5.2s-3,5.2-6.5,5.2H31.3v-10.4h0Zm24.7,37.2H31.3v-11.4h24.7c4.1,0,6.8,2.2,6.8,5.7s-2.7,5.7-6.8,5.7h0Zm138.1,17.6l-19.6-22.9c10.4-3.8,17.4-11.5,17.4-23.3,0-18-16.2-26.3-36.3-26.3h-52v72.4h28.8v-19.9h12.9l16.2,19.9,32.6,.1h0Zm-61.8-52.5h20.8c5.6,0,9.5,1.9,9.5,7.2s-3.9,7.2-9.5,7.2h-20.8v-14.4h0Zm130.7-19.9v36c0,9.2-4.4,16.5-15.5,16.5s-15.5-7.3-15.5-16.5v-36h-29v38.3c0,22.6,16.1,36.6,44.5,36.6s44.5-14,44.5-36.6v-38.3h-29Zm104.6,0v24.6h-33.1v-24.6h-29v72.4h29v-25.6h33.1v25.6h29v-72.4h-29ZM58.5,334.5c9.1-.5,14.4-6.5,14.4-13.1,0-9.3-9.7-15.7-25-15.7H2.2v59.8H51.3c15.3,0,25-6.6,25-16.3,0-8.9-8.2-14-17.8-14.7h0Zm-32.7-14.3h18.1c2.9,0,5.4,1.4,5.4,4.3s-2.5,4.3-5.4,4.3H25.7l.1-8.6h0Zm20.4,30.7H25.7v-9.4h20.4c3.4,0,5.6,1.8,5.6,4.7s-2.1,4.7-5.5,4.7h0Zm62.7-2v-6.2h34.7v-14.9h-34.7v-5.5h43.1v-16.6H85.5v59.8h67.5v-16.6h-44.1Zm107.9,16.6h25.1l-29.7-59.8h-26l-29.7,59.8h24.8l4.2-9.4h27.2l4.1,9.4Zm-24.8-24l7.1-15.9,7.1,15.9h-14.2Zm130.5,24l-16.2-18.9c8.6-3.2,14.4-9.5,14.4-19.2,0-14.9-13.4-21.7-30-21.7h-43v59.8h23.7v-16.4h10.7l13.4,16.4h27Zm-51.1-43.4h17.2c4.6,0,7.9,1.5,7.9,6s-3.2,6-7.9,6h-17.2v-12h0Zm93.7,3.5c-8.6-.7-12.7-1.3-12.7-3.2,0-2.3,5.8-2.8,11-2.8,8.6,0,16.4,1.6,23.3,5.8l10.8-13.2c-9.1-5.6-21.9-8.5-34.2-8.5-19.8,0-34.4,7.3-34.4,20.8s16.5,18.4,35.4,20c10,.9,12.3,1.8,12.3,3.8s-3.3,3.2-10.3,3.2c-11.5,0-22-3.6-28.6-8.1l-11.4,13.1c9.9,7.1,23.9,11.1,39.7,11.1,22.5,0,34.2-8.5,34.2-21.9-.2-14.7-14.7-18.4-35.1-20.1h0Z"></path>
</svg>